# xmcd
#
# Track frame offsets:
#	151
#	16560
#	28516
#	41870
#	57390
#	69092
#	84037
#	94918
#	108133
#	120046
#	131978
#	142969
#	153388
#	167529
#	179382
#
# Disc length: 2630 seconds
#
# Revision: 1
# Processed by: cddbd v1.5.2PL0 Copyright (c) Steve Scherf et al.
# Submitted via: audiograbber 1.82.02
#
DISCID=ae0a440f
DTITLE=Bernd Kaiser - Road Songs - God save the travellers
DYEAR=1997
DGENRE=Country
TTITLE0=Tramps and Hawkers
TTITLE1=God Save The Travellers
TTITLE2=No Regrets
TTITLE3=Indian Drums
TTITLE4=Blue Train
TTITLE5=Strolling Down The Highway
TTITLE6=Too Dumb For New York City
TTITLE7=Rachael
TTITLE8=San Francisco Bay Blues
TTITLE9=Down And Out
TTITLE10=Sittin' On A Fence
TTITLE11=Sail Away
TTITLE12=Billy Dee
TTITLE13=Mind Your Own Business
TTITLE14=Wheels On Fire
EXTD=
EXTT0=
EXTT1=
EXTT2=
EXTT3=
EXTT4=
EXTT5=
EXTT6=
EXTT7=
EXTT8=
EXTT9=
EXTT10=
EXTT11=
EXTT12=
EXTT13=
EXTT14=
PLAYORDER=
